<svg width="14" height="14" viewBox="0 0 14 14" fill="none" xmlns="http://www.w3.org/2000/svg">
<mask id="path-1-inside-1_24_493" fill="white">
<path fill-rule="evenodd" clip-rule="evenodd" d="M13.1599 6.41667C13.6836 5.73688 14 4.85393 14 3.88889C14 1.74111 12.433 0 10.5 0C8.65682 0 7.1464 1.58308 7.01003 3.59228L6.99012 3.59451C6.85471 1.58426 5.34386 1.06812e-05 3.5 1.06812e-05C1.567 1.06812e-05 0 1.74113 0 3.8889C0 4.85394 0.316361 5.73688 0.840136 6.41667H0.8166L7.00002 14L13.1834 6.41667H13.1599Z"/>
</mask>
<path d="M13.1599 6.41667L12.3677 5.80632L11.1269 7.41667H13.1599V6.41667ZM7.01003 3.59228L7.12134 4.58607L7.95118 4.49312L8.00773 3.66L7.01003 3.59228ZM6.99012 3.59451L5.99238 3.66172L6.06264 4.70465L7.10143 4.5883L6.99012 3.59451ZM0.840136 6.41667V7.41667H2.87304L1.63227 5.80632L0.840136 6.41667ZM0.8166 6.41667V5.41667H-1.28909L0.0415862 7.04861L0.8166 6.41667ZM7.00002 14L6.22501 14.6319L7.00002 15.5824L7.77504 14.6319L7.00002 14ZM13.1834 6.41667L13.9585 7.04861L15.2891 5.41667H13.1834V6.41667ZM13.952 7.02701C14.6117 6.17082 15 5.07287 15 3.88889H13C13 4.635 12.7556 5.30294 12.3677 5.80632L13.952 7.02701ZM15 3.88889C15 1.29054 13.0818 -1 10.5 -1V1C11.7842 1 13 2.19169 13 3.88889H15ZM10.5 -1C8.04019 -1 6.17784 1.08607 6.01232 3.52456L8.00773 3.66C8.11497 2.08009 9.27344 1 10.5 1V-1ZM6.89872 2.5985L6.87881 2.60073L7.10143 4.5883L7.12134 4.58607L6.89872 2.5985ZM7.98786 3.5273C7.82352 1.08759 5.96073 -0.999989 3.5 -0.999989V1.00001C4.727 1.00001 5.8859 2.08092 5.99238 3.66172L7.98786 3.5273ZM3.5 -0.999989C0.918219 -0.999989 -1 1.29055 -1 3.8889H1C1 2.1917 2.21579 1.00001 3.5 1.00001V-0.999989ZM-1 3.8889C-1 5.07287 -0.611695 6.17082 0.0479975 7.02701L1.63227 5.80632C1.24442 5.30294 1 4.635 1 3.8889H-1ZM0.8166 7.41667H0.840136V5.41667H0.8166V7.41667ZM7.77504 13.3681L1.59161 5.78472L0.0415862 7.04861L6.22501 14.6319L7.77504 13.3681ZM12.4084 5.78472L6.22501 13.3681L7.77504 14.6319L13.9585 7.04861L12.4084 5.78472ZM13.1599 7.41667H13.1834V5.41667H13.1599V7.41667Z" fill="black" mask="url(#path-1-inside-1_24_493)"/>
</svg>
