<svg width="30" height="30" viewBox="0 0 30 30" fill="none" xmlns="http://www.w3.org/2000/svg">
<path fill-rule="evenodd" clip-rule="evenodd" d="M17.9697 10.9848C17.9697 14.8425 14.8425 17.9697 10.9848 17.9697C7.12722 17.9697 4 14.8425 4 10.9848C4 7.12722 7.12722 4 10.9848 4C14.8425 4 17.9697 7.12722 17.9697 10.9848ZM17.209 20.0374C15.4398 21.2562 13.2957 21.9697 10.9848 21.9697C4.91808 21.9697 0 17.0516 0 10.9848C0 4.91808 4.91808 0 10.9848 0C17.0516 0 21.9697 4.91808 21.9697 10.9848C21.9697 13.2957 21.2562 15.4398 20.0374 17.209L28.6566 25.8282C29.4377 26.6093 29.4377 27.8756 28.6566 28.6566C27.8756 29.4377 26.6093 29.4377 25.8282 28.6566L17.209 20.0374Z" fill="#58A942"/>
</svg>
